# xmcd
#
# Track frame offsets:
#	150
#	10053
#	21565
#	34207
#	50063
#	67753
#	82873
#	97924
#	113576
#	128804
#	142278
#	152553
#	163642
#	176156
#	193441
#	207547
#	217538
#	233052
#	249552
#	260406
#	275266
#	287687
#	298812
#	311351
#
# Disc length: 4314 seconds
#
# Revision: 1
# Processed by: cddbd v1.5.2PL0 Copyright (c) Steve Scherf et al.
# Submitted via: audiograbber 1.83.01
#
DISCID=5b10d818
DTITLE=Einmal um die ganze Welt - CD 5 -   Am Strand unserer Träume
DYEAR=2008
DGENRE=Schlager
TTITLE0=Caterina Valente/Silvio Francesco - Itsy Bitsy teenie Weenie Honolulu-S
TTITLE0=trand-Bikini
TTITLE1=Freddy Quinn - Die Gitarre und das Meer
TTITLE2=Bruce Low - Blaues Meer
TTITLE3=Peter Rubin - Azzurro
TTITLE4=G. G. Anderson - Am weißen Strand von San Angelo
TTITLE5=Die Flippers - Im heißen Sand von Rhodos
TTITLE6=Patrick Lindner - Der Sommerwind
TTITLE7=Howard Carpendale - Deine Spuren im Sand
TTITLE8=René Carol/Barbara Kist - Am Strand von Havanna
TTITLE9=Mina - Heißer Sand
TTITLE10=Gerhard Wendland - Die Welt war nie so schön für mich
TTITLE11=Lolita - Der weiße Mond von Maratonga
TTITLE12=Curd Jürgens - La Paloma
TTITLE13=Tony Marschall - Bora Bora
TTITLE14=Die Flippers - Lago Maggiore
TTITLE15=Heino - Ciao, Ciao, Goodbye
TTITLE16=Vicky Leandros - Die Bouzouki klang durch die Sommernacht
TTITLE17=Freddy Quinn - Aloha Oé
TTITLE18=Caterina Valente - Fiesta Cubana
TTITLE19=Roy Black - Ein Paradies am Meeresstrand
TTITLE20=Peter Alexander - Rot ist der Wein
TTITLE21=Lale Andersen - Einmal sehen wir uns wieder
TTITLE22=Willy Hagara - Mandolinen und Mondschein
TTITLE23=Rudi Schuricke/Schöneberger Sängerknaben - Auf Wiedersehn
EXTD=Readers Digest - Eine Traumreise mit Schlagern
EXTT0=
EXTT1=
EXTT2=
EXTT3=
EXTT4=
EXTT5=
EXTT6=
EXTT7=
EXTT8=
EXTT9=
EXTT10=
EXTT11=
EXTT12=
EXTT13=
EXTT14=
EXTT15=
EXTT16=
EXTT17=
EXTT18=
EXTT19=
EXTT20=
EXTT21=
EXTT22=
EXTT23=
PLAYORDER=
